<svg xmlns="http://www.w3.org/2000/svg" width="106.699" height="110.897" viewBox="0 0 106.699 110.897">
    <g id="Group_48" data-name="Group 48" transform="translate(-854.362 -1102.558)">
        <path id="Path_1083" data-name="Path 1083"
              d="M271.4,584.082a24.4,24.4,0,0,0-3.033-11.614,25.322,25.322,0,0,0-14.19-11.957,14.525,14.525,0,0,0,2.448-22.021,14.368,14.368,0,0,0-20.479-.353,13.793,13.793,0,0,0-4.336,10.044c-.044,5.208,2.254,9.251,6.461,12.3-.259.115-.427.2-.6.266A24.919,24.919,0,0,0,221.6,578.99c-.979,3.991-.492,8.062-.62,12.1-.022.711.437.546.814.546q24.419.005,48.838.018c.659,0,.8-.206.788-.82C271.383,588.584,271.424,586.333,271.4,584.082Zm-36-35.612a10.8,10.8,0,1,1,10.848,10.754A10.832,10.832,0,0,1,235.4,548.47ZM240.73,588q-7.755.02-15.51.043c-.356,0-.616.024-.644-.5-.364-6.7,1.123-12.783,5.831-17.817.152-.162.331-.3.5-.448h0a18.919,18.919,0,0,1,5.3-3.953L243.692,588Zm5.417-4.071c-2.18-6.583-4.288-12.966-6.414-19.344-.195-.585-.008-.741.553-.9a21.162,21.162,0,0,1,11.754-.032c.688.19.789.415.568,1.076-2.086,6.238-4.137,12.489-6.2,18.734A4.279,4.279,0,0,1,246.147,583.925Zm21.03,4.126c-5.168-.039-10.337-.042-15.506-.056h-2.965l7.483-22.668a18.76,18.76,0,0,1,5.3,3.947,21,21,0,0,1,6.279,14.105c.084,1.306.013,2.622.042,3.932C267.821,587.784,267.792,588.056,267.177,588.051Z"
              transform="translate(661.52 621.301)" fill="#ff9200" stroke="#ff9200" stroke-width="1"/>
        <path id="Path_1084" data-name="Path 1084"
              d="M160.49,442.588l-31.077-6.213,6.221,31.082c1.87-1.876,3.594-3.544,5.238-5.287.639-.678.965-.777,1.68-.021,4.56,4.825,9.2,9.577,13.776,14.384.559.587.832.66,1.445.037q5.837-5.938,11.773-11.78c.606-.6.664-.9.006-1.527-4.868-4.624-9.684-9.3-14.541-13.937-.52-.5-.556-.757-.02-1.271C156.8,446.321,158.55,444.527,160.49,442.588Zm3.95,20.76c.621.591.62.873.01,1.461q-3.36,3.238-6.6,6.6c-.584.6-.868.621-1.461,0-4.624-4.863-9.3-9.676-13.929-14.535-.531-.558-.811-.636-1.356-.027-.994,1.109-2.085,2.132-3.255,3.311l-3.837-19.182,19.188,3.834c-1.183,1.173-2.206,2.264-3.317,3.256-.61.545-.528.825.026,1.353C154.764,454.047,159.577,458.724,164.44,463.348Z"
              transform="translate(725.587 689.633)" fill="#ff9200" stroke="#ff9200" stroke-width="1"/>
        <path id="Path_1085" data-name="Path 1085"
              d="M360.22,448c.611.579.6.861-.013,1.44-4.864,4.626-9.678,9.3-14.539,13.933-.575.547-.572.809-.009,1.361,3.37,3.311,6.688,6.676,10.044,10,.842.835,1.61,2.327,2.578,2.282.852-.039,1.647-1.48,2.452-2.317,4.265-4.428,8.525-8.86,12.937-13.448l6.019,6.058,6.176-30.89-31.052,6.212C356.713,444.526,358.431,446.3,360.22,448Zm21.056-6.982c-1.285,6.424-2.541,12.706-3.835,19.176-1.169-1.182-2.26-2.2-3.251-3.317-.549-.616-.83-.518-1.354.031-4.63,4.856-9.305,9.669-13.929,14.531-.588.618-.872.618-1.461.008q-3.237-3.36-6.6-6.6c-.6-.582-.622-.864,0-1.458,4.836-4.6,9.619-9.249,14.451-13.85.611-.582.723-.91.036-1.517-1.087-.96-2.072-2.034-3.213-3.172Z"
              transform="translate(574.557 689.603)" fill="#ff9200" stroke="#ff9200" stroke-width="1"/>
        <path id="Path_1086" data-name="Path 1086"
              d="M253.567,387.9c.839-.021,1.044.19,1.039,1.035-.04,6.527,0,13.053-.044,19.58-.005.839.192,1.044,1.035,1.037q7.989-.065,15.978,0c.842.007,1.041-.2,1.036-1.037-.039-6.451,0-12.9-.047-19.354-.008-1.023.248-1.3,1.268-1.264,2.448.08,4.9.026,7.527.026l-17.772-26.652L245.819,387.92C248.544,387.92,251.057,387.96,253.567,387.9Zm10.021-20.137,11.039,16.558c-1.7,0-3.219.041-4.736-.018-.737-.029-.923.185-.92.919.03,6.561,0,13.122.038,19.683,0,.821-.163,1.066-1.025,1.047-2.923-.063-5.849-.056-8.772,0-.816.014-1.056-.155-1.051-1.022.043-6.523.009-13.047.042-19.57,0-.795-.118-1.114-1.011-1.06-1.48.089-2.969.024-4.642.024Z"
              transform="translate(644.128 742.191)" fill="#ff9200" stroke="#ff9200" stroke-width="1"/>
    </g>
</svg>
